<svg version="1" xmlns="http://www.w3.org/2000/svg" width="348" height="348" viewBox="0 0 261.000000 261.000000"><path d="M7 131.5V254h245V9H7v122.5zM219.5 28.2c-2.2 2.4-14 14.4-26.2 26.8C181 67.5 171 78.3 171 79c0 .8.5 3.3 1 5.5 2.4 9.7 3.9 17.8 6.5 35.5 3.6 25.1 9.9 46.2 15.4 51.4 3.4 3.3 8.5 4.5 19.1 4.6 12.7 0 19.8 5.1 20.7 14.7.7 6.8-2.3 12.5-7.9 15.4-3.9 2-5.3 2.1-17.8 1.6-23-1-32.9-5.9-43.1-21.4-8.8-13.6-12.9-28.2-19.5-69.8l-1.7-10.9-14.3 14.9c-13.9 14.6-14.2 15.1-15.4 21-3.9 20-12.7 40.7-21.3 50.1-8.5 9.4-19.8 13.9-37.6 15l-10.8.7-10.2 10.8c-5.7 6-10.7 10.9-11.2 10.9-1 0-1.3-203.3-.2-204.3.3-.4 45.6-.7 100.7-.7h100l-3.9 4.2z"/><path d="M126.8 55.5C115.2 58 107.4 66.7 102.2 83c-2.9 9-3.3 10.5-8.7 41.7-3.9 21.9-11.9 44.9-17.7 51.1-5 5.2-10.8 7.3-21.8 7.9-10.4.6-14 2.4-14 6.9 0 7.8 6.7 9.9 23.2 7.3 9.7-1.5 14.9-4 21.5-10.1 11-10.5 17.9-29.5 24.8-68.6 4.1-23 6.5-32.2 10.5-40.1 3.4-6.8 6.8-9.4 12.5-9.5 6.1-.1 9.2 2.5 13 10.7 3.5 7.7 5.6 17.3 10.6 48.7 7 43.7 15.5 60.6 34.4 68.6 4.3 1.8 25.1 3.2 29.9 2 3.3-.8 5.9-5.6 4.7-8.8-1.7-4.5-3.7-5.2-16.5-5.8-10.3-.5-12.8-1-16.4-3-10.1-5.7-16.2-22.2-22.1-59.5-4-24.9-6.7-38.4-9.2-45.1-4.1-10.8-12-19.4-19.9-21.3-7-1.8-8.6-1.8-14.2-.6z"/></svg>